<svg width="32" height="33" viewBox="0 0 32 33" fill="none" xmlns="http://www.w3.org/2000/svg">
<path fill-rule="evenodd" clip-rule="evenodd" d="M31 10.5C31 9.174 30.473 7.902 29.536 6.964C28.598 6.027 27.326 5.5 26 5.5C20.678 5.5 11.322 5.5 6 5.5C4.674 5.5 3.402 6.027 2.464 6.964C1.527 7.902 1 9.174 1 10.5C1 13.986 1 19.014 1 22.5C1 23.826 1.527 25.098 2.464 26.036C3.402 26.973 4.674 27.5 6 27.5C11.322 27.5 20.678 27.5 26 27.5C27.326 27.5 28.598 26.973 29.536 26.036C30.473 25.098 31 23.826 31 22.5C31 19.014 31 13.986 31 10.5ZM4.444 10.279C4.444 10.279 9.589 14.516 12.816 17.173C14.665 18.696 17.335 18.693 19.181 17.166C22.418 14.489 27.594 10.207 27.594 10.207C28.019 9.855 28.079 9.224 27.727 8.799C27.376 8.374 26.745 8.314 26.319 8.666C26.319 8.666 21.143 12.947 17.907 15.625C16.799 16.541 15.197 16.543 14.087 15.629L5.715 8.735C5.289 8.384 4.659 8.445 4.308 8.871C3.957 9.297 4.018 9.928 4.444 10.279Z" fill="#6C6C6C"/>
</svg>
