<svg width="32" height="32" viewBox="0 0 32 32" fill="none" xmlns="http://www.w3.org/2000/svg">
<path fill-rule="evenodd" clip-rule="evenodd" d="M31 10C31 8.674 30.473 7.402 29.536 6.464C28.598 5.527 27.326 5 26 5C20.678 5 11.322 5 6 5C4.674 5 3.402 5.527 2.464 6.464C1.527 7.402 1 8.674 1 10C1 13.486 1 18.514 1 22C1 23.326 1.527 24.598 2.464 25.536C3.402 26.473 4.674 27 6 27C11.322 27 20.678 27 26 27C27.326 27 28.598 26.473 29.536 25.536C30.473 24.598 31 23.326 31 22C31 18.514 31 13.486 31 10ZM4.444 9.779C4.444 9.779 9.589 14.016 12.816 16.673C14.665 18.196 17.335 18.193 19.181 16.666C22.418 13.989 27.594 9.707 27.594 9.707C28.019 9.355 28.079 8.724 27.727 8.299C27.376 7.874 26.745 7.814 26.319 8.166C26.319 8.166 21.143 12.447 17.907 15.125C16.799 16.041 15.197 16.043 14.087 15.129L5.715 8.235C5.289 7.884 4.659 7.945 4.308 8.371C3.957 8.797 4.018 9.428 4.444 9.779Z" fill="#0179FE"/>
</svg>
