<svg width="33" height="32" viewBox="0 0 33 32" fill="none" xmlns="http://www.w3.org/2000/svg">
<path fill-rule="evenodd" clip-rule="evenodd" d="M6.06209 4.22878C4.5 5.79089 4.5 8.30503 4.5 13.3334V18.6667C4.5 23.695 4.5 26.2092 6.06209 27.7712C7.6242 29.3334 10.1383 29.3334 15.1667 29.3334H17.8333C22.8616 29.3334 25.3759 29.3334 26.9379 27.7712C28.5 26.2092 28.5 23.695 28.5 18.6667V13.3334C28.5 8.30503 28.5 5.79089 26.9379 4.22878C25.3759 2.66669 22.8616 2.66669 17.8333 2.66669H15.1667C10.1383 2.66669 7.6242 2.66669 6.06209 4.22878ZM10.1667 10.6667C10.1667 10.1144 10.6144 9.66669 11.1667 9.66669H21.8333C22.3856 9.66669 22.8333 10.1144 22.8333 10.6667C22.8333 11.219 22.3856 11.6667 21.8333 11.6667H11.1667C10.6144 11.6667 10.1667 11.219 10.1667 10.6667ZM10.1667 16C10.1667 15.4478 10.6144 15 11.1667 15H21.8333C22.3856 15 22.8333 15.4478 22.8333 16C22.8333 16.5523 22.3856 17 21.8333 17H11.1667C10.6144 17 10.1667 16.5523 10.1667 16ZM11.1667 20.3334C10.6144 20.3334 10.1667 20.7811 10.1667 21.3334C10.1667 21.8856 10.6144 22.3334 11.1667 22.3334H17.8333C18.3856 22.3334 18.8333 21.8856 18.8333 21.3334C18.8333 20.7811 18.3856 20.3334 17.8333 20.3334H11.1667Z" fill="#0179FE"/>
</svg>
