<svg width="33" height="33" viewBox="0 0 33 33" fill="none" xmlns="http://www.w3.org/2000/svg">
<path fill-rule="evenodd" clip-rule="evenodd" d="M6.06209 4.72878C4.5 6.29089 4.5 8.80503 4.5 13.8334V19.1667C4.5 24.195 4.5 26.7092 6.06209 28.2712C7.6242 29.8334 10.1383 29.8334 15.1667 29.8334H17.8333C22.8616 29.8334 25.3759 29.8334 26.9379 28.2712C28.5 26.7092 28.5 24.195 28.5 19.1667V13.8334C28.5 8.80503 28.5 6.29089 26.9379 4.72878C25.3759 3.16669 22.8616 3.16669 17.8333 3.16669H15.1667C10.1383 3.16669 7.6242 3.16669 6.06209 4.72878ZM10.1667 11.1667C10.1667 10.6144 10.6144 10.1667 11.1667 10.1667H21.8333C22.3856 10.1667 22.8333 10.6144 22.8333 11.1667C22.8333 11.719 22.3856 12.1667 21.8333 12.1667H11.1667C10.6144 12.1667 10.1667 11.719 10.1667 11.1667ZM10.1667 16.5C10.1667 15.9478 10.6144 15.5 11.1667 15.5H21.8333C22.3856 15.5 22.8333 15.9478 22.8333 16.5C22.8333 17.0523 22.3856 17.5 21.8333 17.5H11.1667C10.6144 17.5 10.1667 17.0523 10.1667 16.5ZM11.1667 20.8334C10.6144 20.8334 10.1667 21.2811 10.1667 21.8334C10.1667 22.3856 10.6144 22.8334 11.1667 22.8334H17.8333C18.3856 22.8334 18.8333 22.3856 18.8333 21.8334C18.8333 21.2811 18.3856 20.8334 17.8333 20.8334H11.1667Z" fill="#6C6C6C"/>
</svg>
